<mxfile host="app.diagrams.net" modified="2022-03-16T05:51:04.446Z" agent="5.0 (Macintosh; Intel Mac OS X 10_15_7) AppleWebKit/537.36 (KHTML, like Gecko) Chrome/98.0.4758.109 Safari/537.36" etag="yEGfcp2UsjohiJ99rr1v" version="17.1.3" type="github">
  <diagram id="zSal29-DFrPNar5D3R_Y" name="Page-1">
    <mxGraphModel dx="2253" dy="769" grid="1" gridSize="10" guides="1" tooltips="1" connect="1" arrows="1" fold="1" page="1" pageScale="1" pageWidth="827" pageHeight="1169" math="0" shadow="0">
      <root>
        <mxCell id="0" />
        <mxCell id="1" parent="0" />
        <mxCell id="0gWaEPqw4A000z1eMLY--9" value="" style="rounded=1;whiteSpace=wrap;html=1;" vertex="1" parent="1">
          <mxGeometry x="310" y="370" width="330" height="240" as="geometry" />
        </mxCell>
        <mxCell id="0gWaEPqw4A000z1eMLY--5" value="" style="edgeStyle=orthogonalEdgeStyle;rounded=0;orthogonalLoop=1;jettySize=auto;html=1;" edge="1" parent="1" source="0gWaEPqw4A000z1eMLY--1" target="0gWaEPqw4A000z1eMLY--4">
          <mxGeometry relative="1" as="geometry" />
        </mxCell>
        <mxCell id="0gWaEPqw4A000z1eMLY--7" value="" style="edgeStyle=orthogonalEdgeStyle;rounded=0;orthogonalLoop=1;jettySize=auto;html=1;" edge="1" parent="1" source="0gWaEPqw4A000z1eMLY--1" target="0gWaEPqw4A000z1eMLY--6">
          <mxGeometry relative="1" as="geometry" />
        </mxCell>
        <mxCell id="0gWaEPqw4A000z1eMLY--1" value="datacenter core" style="rounded=1;whiteSpace=wrap;html=1;align=right;" vertex="1" parent="1">
          <mxGeometry x="270" y="350" width="400" height="280" as="geometry" />
        </mxCell>
        <mxCell id="0gWaEPqw4A000z1eMLY--2" value="internal data" style="rounded=1;whiteSpace=wrap;html=1;" vertex="1" parent="1">
          <mxGeometry x="330" y="400" width="90" height="170" as="geometry" />
        </mxCell>
        <mxCell id="0gWaEPqw4A000z1eMLY--3" value="external data" style="rounded=1;whiteSpace=wrap;html=1;" vertex="1" parent="1">
          <mxGeometry x="470" y="400" width="90" height="170" as="geometry" />
        </mxCell>
        <mxCell id="0gWaEPqw4A000z1eMLY--4" value="external services" style="whiteSpace=wrap;html=1;align=center;rounded=1;" vertex="1" parent="1">
          <mxGeometry x="-70" y="460" width="120" height="60" as="geometry" />
        </mxCell>
        <mxCell id="0gWaEPqw4A000z1eMLY--6" value="&lt;div&gt;&lt;span&gt;database&lt;/span&gt;&lt;/div&gt;" style="shape=process;whiteSpace=wrap;html=1;backgroundOutline=1;align=center;rounded=1;" vertex="1" parent="1">
          <mxGeometry x="410" y="820" width="120" height="60" as="geometry" />
        </mxCell>
      </root>
    </mxGraphModel>
  </diagram>
</mxfile>
